<svg width="133" height="54" viewBox="0 0 133 54" fill="none" xmlns="http://www.w3.org/2000/svg">
<path d="M50.968 21.336C48.888 21.336 47.24 20.76 46.024 19.608C44.808 18.44 44.2 16.776 44.2 14.616V10.584C44.2 8.424 44.808 6.768 46.024 5.616C47.24 4.448 48.888 3.864 50.968 3.864C53.032 3.864 54.624 4.432 55.744 5.568C56.88 6.688 57.448 8.232 57.448 10.2V10.344H54.328V10.104C54.328 9.112 54.048 8.296 53.488 7.656C52.944 7.016 52.104 6.696 50.968 6.696C49.848 6.696 48.968 7.04 48.328 7.728C47.688 8.416 47.368 9.352 47.368 10.536V14.664C47.368 15.832 47.688 16.768 48.328 17.472C48.968 18.16 49.848 18.504 50.968 18.504C52.104 18.504 52.944 18.184 53.488 17.544C54.048 16.888 54.328 16.072 54.328 15.096V14.664H57.448V15C57.448 16.968 56.88 18.52 55.744 19.656C54.624 20.776 53.032 21.336 50.968 21.336ZM63.8213 21.336C62.9733 21.336 62.2133 21.192 61.5413 20.904C60.8693 20.6 60.3333 20.168 59.9333 19.608C59.5493 19.032 59.3573 18.336 59.3573 17.52C59.3573 16.704 59.5493 16.024 59.9333 15.48C60.3333 14.92 60.8773 14.504 61.5653 14.232C62.2693 13.944 63.0693 13.8 63.9653 13.8H67.2293V13.128C67.2293 12.568 67.0533 12.112 66.7013 11.76C66.3493 11.392 65.7893 11.208 65.0213 11.208C64.2693 11.208 63.7093 11.384 63.3413 11.736C62.9733 12.072 62.7333 12.512 62.6213 13.056L59.8373 12.12C60.0293 11.512 60.3333 10.96 60.7493 10.464C61.1813 9.952 61.7493 9.544 62.4533 9.24C63.1733 8.92 64.0453 8.76 65.0693 8.76C66.6373 8.76 67.8773 9.152 68.7893 9.936C69.7013 10.72 70.1573 11.856 70.1573 13.344V17.784C70.1573 18.264 70.3813 18.504 70.8293 18.504H71.7893V21H69.7733C69.1813 21 68.6933 20.856 68.3093 20.568C67.9253 20.28 67.7333 19.896 67.7333 19.416V19.392H67.2773C67.2133 19.584 67.0693 19.84 66.8453 20.16C66.6213 20.464 66.2693 20.736 65.7893 20.976C65.3093 21.216 64.6533 21.336 63.8213 21.336ZM64.3493 18.888C65.1973 18.888 65.8853 18.656 66.4133 18.192C66.9573 17.712 67.2293 17.08 67.2293 16.296V16.056H64.1813C63.6213 16.056 63.1813 16.176 62.8613 16.416C62.5413 16.656 62.3813 16.992 62.3813 17.424C62.3813 17.856 62.5493 18.208 62.8853 18.48C63.2213 18.752 63.7093 18.888 64.3493 18.888ZM74.0003 25.8V9.096H76.9763V10.536H77.4083C77.6803 10.072 78.1043 9.664 78.6803 9.312C79.2563 8.944 80.0803 8.76 81.1523 8.76C82.1123 8.76 83.0003 9 83.8163 9.48C84.6323 9.944 85.2883 10.632 85.7843 11.544C86.2803 12.456 86.5283 13.56 86.5283 14.856V15.24C86.5283 16.536 86.2803 17.64 85.7843 18.552C85.2883 19.464 84.6323 20.16 83.8163 20.64C83.0003 21.104 82.1123 21.336 81.1523 21.336C80.4323 21.336 79.8243 21.248 79.3283 21.072C78.8483 20.912 78.4563 20.704 78.1523 20.448C77.8643 20.176 77.6323 19.904 77.4563 19.632H77.0243V25.8H74.0003ZM80.2403 18.696C81.1843 18.696 81.9603 18.4 82.5683 17.808C83.1923 17.2 83.5043 16.32 83.5043 15.168V14.928C83.5043 13.776 83.1923 12.904 82.5683 12.312C81.9443 11.704 81.1683 11.4 80.2403 11.4C79.3123 11.4 78.5363 11.704 77.9123 12.312C77.2883 12.904 76.9763 13.776 76.9763 14.928V15.168C76.9763 16.32 77.2883 17.2 77.9123 17.808C78.5363 18.4 79.3123 18.696 80.2403 18.696ZM89.305 25.8V9.096H92.281V10.536H92.713C92.985 10.072 93.409 9.664 93.985 9.312C94.561 8.944 95.385 8.76 96.457 8.76C97.417 8.76 98.305 9 99.121 9.48C99.937 9.944 100.593 10.632 101.089 11.544C101.585 12.456 101.833 13.56 101.833 14.856V15.24C101.833 16.536 101.585 17.64 101.089 18.552C100.593 19.464 99.937 20.16 99.121 20.64C98.305 21.104 97.417 21.336 96.457 21.336C95.737 21.336 95.129 21.248 94.633 21.072C94.153 20.912 93.761 20.704 93.457 20.448C93.169 20.176 92.937 19.904 92.761 19.632H92.329V25.8H89.305ZM95.545 18.696C96.489 18.696 97.265 18.4 97.873 17.808C98.497 17.2 98.809 16.32 98.809 15.168V14.928C98.809 13.776 98.497 12.904 97.873 12.312C97.249 11.704 96.473 11.4 95.545 11.4C94.617 11.4 93.841 11.704 93.217 12.312C92.593 12.904 92.281 13.776 92.281 14.928V15.168C92.281 16.32 92.593 17.2 93.217 17.808C93.841 18.4 94.617 18.696 95.545 18.696ZM110.034 21.336C108.85 21.336 107.802 21.088 106.89 20.592C105.994 20.08 105.29 19.368 104.778 18.456C104.282 17.528 104.034 16.44 104.034 15.192V14.904C104.034 13.656 104.282 12.576 104.778 11.664C105.274 10.736 105.97 10.024 106.866 9.528C107.762 9.016 108.802 8.76 109.986 8.76C111.154 8.76 112.17 9.024 113.034 9.552C113.898 10.064 114.57 10.784 115.05 11.712C115.53 12.624 115.77 13.688 115.77 14.904V15.936H107.106C107.138 16.752 107.442 17.416 108.018 17.928C108.594 18.44 109.298 18.696 110.13 18.696C110.978 18.696 111.602 18.512 112.002 18.144C112.402 17.776 112.706 17.368 112.914 16.92L115.386 18.216C115.162 18.632 114.834 19.088 114.402 19.584C113.986 20.064 113.426 20.48 112.722 20.832C112.018 21.168 111.122 21.336 110.034 21.336ZM107.13 13.68H112.698C112.634 12.992 112.354 12.44 111.858 12.024C111.378 11.608 110.746 11.4 109.962 11.4C109.146 11.4 108.498 11.608 108.018 12.024C107.538 12.44 107.242 12.992 107.13 13.68ZM116.632 21L120.952 15L116.68 9.096H120.184L122.896 13.056H123.328L126.04 9.096H129.544L125.272 15L129.592 21H126.04L123.328 16.992H122.896L120.184 21H116.632Z" fill="black"/>
<rect x="43" y="30" width="90" height="23" rx="10" fill="#0057FF"/>
<path d="M62.84 47V37.368H59.4V35.8H68.008V37.368H64.568V47H62.84ZM68.466 47V39.112H70.082V40.04H70.338C70.466 39.7093 70.6687 39.4693 70.946 39.32C71.234 39.16 71.586 39.08 72.002 39.08H72.946V40.568H71.938C71.4047 40.568 70.9673 40.7173 70.626 41.016C70.2847 41.304 70.114 41.752 70.114 42.36V47H68.466ZM76.8828 47.224C76.3174 47.224 75.8108 47.128 75.3628 46.936C74.9254 46.744 74.5734 46.4613 74.3068 46.088C74.0508 45.7147 73.9228 45.2613 73.9228 44.728C73.9228 44.184 74.0508 43.736 74.3068 43.384C74.5734 43.0213 74.9308 42.7493 75.3788 42.568C75.8374 42.3867 76.3548 42.296 76.9308 42.296H79.3308V41.784C79.3308 41.3253 79.1921 40.9573 78.9148 40.68C78.6374 40.4027 78.2108 40.264 77.6348 40.264C77.0694 40.264 76.6374 40.3973 76.3388 40.664C76.0401 40.9307 75.8428 41.2773 75.7468 41.704L74.2108 41.208C74.3388 40.7813 74.5414 40.3973 74.8188 40.056C75.1068 39.704 75.4854 39.4213 75.9548 39.208C76.4241 38.9947 76.9894 38.888 77.6508 38.888C78.6748 38.888 79.4801 39.1493 80.0668 39.672C80.6534 40.1947 80.9468 40.936 80.9468 41.896V45.144C80.9468 45.464 81.0961 45.624 81.3948 45.624H82.0668V47H80.8348C80.4614 47 80.1574 46.904 79.9228 46.712C79.6881 46.52 79.5708 46.2587 79.5708 45.928V45.88H79.3308C79.2454 46.04 79.1174 46.2267 78.9468 46.44C78.7761 46.6533 78.5254 46.84 78.1948 47C77.8641 47.1493 77.4268 47.224 76.8828 47.224ZM77.1228 45.864C77.7841 45.864 78.3174 45.6773 78.7228 45.304C79.1281 44.92 79.3308 44.3973 79.3308 43.736V43.576H77.0268C76.5894 43.576 76.2374 43.672 75.9708 43.864C75.7041 44.0453 75.5707 44.3173 75.5707 44.68C75.5707 45.0427 75.7094 45.3307 75.9868 45.544C76.2641 45.7573 76.6428 45.864 77.1228 45.864ZM86.7456 47.224C86.095 47.224 85.4923 47.064 84.9376 46.744C84.383 46.424 83.935 45.9653 83.5936 45.368C83.263 44.76 83.0976 44.0293 83.0976 43.176V42.936C83.0976 42.0933 83.263 41.368 83.5936 40.76C83.9243 40.152 84.367 39.688 84.9216 39.368C85.4763 39.048 86.0843 38.888 86.7456 38.888C87.2576 38.888 87.6843 38.952 88.0256 39.08C88.3776 39.208 88.6656 39.3733 88.8896 39.576C89.1136 39.768 89.2843 39.9707 89.4016 40.184H89.6576V35.8H91.3056V47H89.6896V45.88H89.4336C89.231 46.2213 88.9216 46.5307 88.5056 46.808C88.1003 47.0853 87.5136 47.224 86.7456 47.224ZM87.2096 45.784C87.9243 45.784 88.511 45.5547 88.9696 45.096C89.439 44.6373 89.6736 43.9813 89.6736 43.128V42.984C89.6736 42.1413 89.4443 41.4907 88.9856 41.032C88.527 40.5733 87.935 40.344 87.2096 40.344C86.5056 40.344 85.919 40.5733 85.4496 41.032C84.991 41.4907 84.7616 42.1413 84.7616 42.984V43.128C84.7616 43.9813 84.991 44.6373 85.4496 45.096C85.919 45.5547 86.5056 45.784 87.2096 45.784ZM97.3476 47.224C96.5476 47.224 95.849 47.0587 95.2516 46.728C94.6543 46.3867 94.185 45.912 93.8436 45.304C93.513 44.6853 93.3476 43.9707 93.3476 43.16V42.968C93.3476 42.1467 93.513 41.432 93.8436 40.824C94.1743 40.2053 94.633 39.7307 95.2196 39.4C95.817 39.0587 96.505 38.888 97.2836 38.888C98.041 38.888 98.7023 39.0587 99.2676 39.4C99.8436 39.7307 100.292 40.1947 100.612 40.792C100.932 41.3893 101.092 42.088 101.092 42.888V43.512H95.0276C95.049 44.2053 95.2783 44.76 95.7156 45.176C96.1636 45.5813 96.7183 45.784 97.3796 45.784C97.9983 45.784 98.4623 45.6453 98.7716 45.368C99.0916 45.0907 99.337 44.7707 99.5076 44.408L100.868 45.112C100.718 45.4107 100.5 45.7253 100.212 46.056C99.9343 46.3867 99.5663 46.664 99.1076 46.888C98.649 47.112 98.0623 47.224 97.3476 47.224ZM95.0436 42.248H99.4116C99.369 41.6507 99.1556 41.1867 98.7716 40.856C98.3876 40.5147 97.8863 40.344 97.2676 40.344C96.649 40.344 96.1423 40.5147 95.7476 40.856C95.3636 41.1867 95.129 41.6507 95.0436 42.248ZM103.075 47V39.112H104.691V40.04H104.947C105.075 39.7093 105.278 39.4693 105.555 39.32C105.843 39.16 106.195 39.08 106.611 39.08H107.555V40.568H106.547C106.014 40.568 105.577 40.7173 105.235 41.016C104.894 41.304 104.723 41.752 104.723 42.36V47H103.075ZM112.323 47.224C111.32 47.224 110.488 47 109.827 46.552C109.166 46.104 108.76 45.4267 108.611 44.52L110.147 44.152C110.232 44.5893 110.376 44.936 110.579 45.192C110.782 45.448 111.032 45.6293 111.331 45.736C111.64 45.8427 111.971 45.896 112.323 45.896C112.846 45.896 113.246 45.7947 113.523 45.592C113.811 45.3893 113.955 45.128 113.955 44.808C113.955 44.488 113.822 44.2533 113.555 44.104C113.288 43.9547 112.894 43.832 112.371 43.736L111.827 43.64C111.294 43.544 110.808 43.4053 110.371 43.224C109.934 43.0427 109.587 42.792 109.331 42.472C109.075 42.152 108.947 41.7413 108.947 41.24C108.947 40.4933 109.224 39.9173 109.779 39.512C110.334 39.096 111.07 38.888 111.987 38.888C112.872 38.888 113.598 39.0907 114.163 39.496C114.739 39.8907 115.112 40.4293 115.283 41.112L113.747 41.544C113.651 41.064 113.448 40.728 113.139 40.536C112.83 40.3333 112.446 40.232 111.987 40.232C111.539 40.232 111.187 40.3173 110.931 40.488C110.675 40.648 110.547 40.8773 110.547 41.176C110.547 41.496 110.67 41.7307 110.915 41.88C111.171 42.0293 111.512 42.1413 111.939 42.216L112.499 42.312C113.064 42.408 113.582 42.5413 114.051 42.712C114.52 42.8827 114.888 43.128 115.155 43.448C115.432 43.768 115.571 44.1947 115.571 44.728C115.571 45.5173 115.278 46.1307 114.691 46.568C114.104 47.0053 113.315 47.224 112.323 47.224Z" fill="white"/>
<g clip-path="url(#clip0_2_11)">
<path d="M37.1063 33.6723C37.5537 34.1157 38.1589 34.3632 38.7888 34.3604C39.4186 34.3576 40.0216 34.1047 40.465 33.6573L45.4805 28.5966C45.9239 28.1492 46.1714 27.544 46.1686 26.9141C46.1658 26.2843 45.9129 25.6813 45.4655 25.2379L40.4048 20.2224C39.9574 19.779 39.3522 19.5315 38.7223 19.5343C38.0925 19.5371 37.4895 19.79 37.0461 20.2374L32.0306 25.2981C31.5872 25.7455 31.3397 26.3507 31.3425 26.9806C31.3453 27.6104 31.5982 28.2134 32.0456 28.6568L33.7325 30.3286L30.3052 33.7868C29.331 33.1488 28.1906 32.8115 27.0261 32.8167C25.8615 32.8219 24.7242 33.1694 23.7557 33.8161L20.2976 30.3888L21.9695 28.7019C22.4129 28.2545 22.6604 27.6493 22.6575 27.0195C22.6547 26.3896 22.4018 25.7866 21.9544 25.3432L20.2675 23.6714L23.6948 20.2133C24.9259 21.0191 26.4124 21.3391 27.8661 21.1112C29.3197 20.8833 30.637 20.1238 31.5624 18.9799C32.4879 17.836 32.9557 16.3892 32.8751 14.92C32.7945 13.4508 32.1712 12.0639 31.1261 11.0281C30.081 9.99235 28.6886 9.38153 27.2187 9.31408C25.7488 9.24662 24.3063 9.72734 23.1707 10.663C22.0352 11.5987 21.2875 12.9227 21.0726 14.3784C20.8578 15.834 21.1911 17.3176 22.0079 18.5414L18.5806 21.9995L16.8938 20.3277C16.4464 19.8843 15.8412 19.6368 15.2113 19.6396C14.5814 19.6424 13.9784 19.8954 13.535 20.3427L8.51952 25.4034C8.07612 25.8508 7.8286 26.456 7.83142 27.0859C7.83425 27.7158 8.08717 28.3187 8.53456 28.7621L13.5952 33.7776C14.0426 34.221 14.6478 34.4686 15.2777 34.4657C15.9076 34.4629 16.5105 34.21 16.9539 33.7626L18.6258 32.0757L22.0839 35.503C21.4967 36.4005 21.1637 37.4404 21.1201 38.5121C21.0765 39.5837 21.324 40.6472 21.8363 41.5895C22.3486 42.5318 23.1066 43.3177 24.0298 43.8638C24.9529 44.4098 26.0067 44.6956 27.0793 44.6908C28.1518 44.686 29.203 44.3908 30.1212 43.8365C31.0395 43.2822 31.7904 42.4895 32.2942 41.5426C32.7981 40.5958 33.0361 39.5302 32.9829 38.4589C32.9297 37.3877 32.5873 36.3509 31.9921 35.4586L35.4194 32.0005L37.1063 33.6723ZM24.417 12.7367C24.913 12.2363 25.5463 11.8941 26.2367 11.7536C26.9271 11.613 27.6437 11.6804 28.2959 11.9471C28.9481 12.2138 29.5065 12.6679 29.9006 13.252C30.2946 13.8361 30.5067 14.5239 30.5098 15.2285C30.513 15.9331 30.3071 16.6228 29.9183 17.2104C29.5295 17.798 28.9751 18.2571 28.3254 18.5297C27.6756 18.8022 26.9597 18.876 26.268 18.7416C25.5763 18.6072 24.94 18.2708 24.4396 17.7748C23.7685 17.1097 23.3891 16.2053 23.3849 15.2604C23.3807 14.3156 23.7519 13.4078 24.417 12.7367ZM15.2671 32.0908L10.2064 27.0752L15.2219 22.0146L20.2826 27.0301L15.2671 32.0908ZM29.583 41.2633C29.087 41.7637 28.4538 42.1059 27.7633 42.2464C27.0729 42.387 26.3563 42.3197 25.7041 42.0529C25.052 41.7862 24.4935 41.3321 24.0995 40.748C23.7054 40.1639 23.4934 39.4761 23.4902 38.7715C23.4871 38.0669 23.6929 37.3772 24.0817 36.7896C24.4706 36.202 25.0249 35.7429 25.6746 35.4704C26.3244 35.1978 27.0404 35.124 27.732 35.2584C28.4237 35.3928 29.06 35.7292 29.5604 36.2252C30.2315 36.8903 30.6109 37.7948 30.6151 38.7396C30.6194 39.6844 30.2481 40.5922 29.583 41.2633ZM38.733 21.9093L43.7936 26.9248L38.7781 31.9854L33.7175 26.9699L38.733 21.9093Z" fill="black"/>
</g>
<defs>
<clipPath id="clip0_2_11">
<rect width="38" height="38" fill="white" transform="translate(26.8796 0.130219) rotate(44.7433)"/>
</clipPath>
</defs>
</svg>
