<svg xmlns="http://www.w3.org/2000/svg" version="1.1" xmlns:xlink="http://www.w3.org/1999/xlink" xmlns:svgjs="http://svgjs.com/svgjs" width="1440" height="560" preserveAspectRatio="none" viewBox="0 0 1440 560"><g mask="url(&quot;#SvgjsMask1042&quot;)" fill="none"><rect width="1440" height="560" x="0" y="0" fill="rgba(8, 39, 110, 1)"></rect><path d="M0 379.51L10 407.85L20 431.38L30 469.71L40 405.98L50 441.65L60 489.89L70 513.53L80 531.07L90 530.34L100 493.13L110 450.67L120 517.87L130 550.01L140 521.35L150 460.07L160 412.22L170 427.61L180 468.74L190 426.58L200 446.18L210 503.76L220 541.88L230 529.6L240 506.3L250 493.69L260 511.79L270 467.2L280 439.06L290 436.71L300 375.21L310 387.58L320 419.04L330 384.27L340 385.08L350 381.77L360 377.43L370 363.95L380 422.53L390 437.84L400 450.7L410 481.75L420 480.43L430 438.53L440 376.81L450 364.32L460 408.34L470 387.36L480 354.29L490 325.29L500 284.63L510 224.4L520 233.6L530 257.56L540 252.61L550 268.59L560 326.55L570 266.84L580 258.14L590 222.74L600 206.87L610 250.28L620 293.03L630 354.58L640 369.26L650 398.27L660 370.49L670 355.25L680 410.27L690 393.58L700 440.42L710 477.12L720 458.63L730 390.33L740 356.47L750 401.65L760 442.42L770 438.28L780 391.84L790 451.45L800 496.14L810 558.44L820 524.43L830 465.43L840 437.09L850 415.77L860 363.3L870 406.04L880 414.37L890 469.42L900 415.07L910 372.92L920 438.54L930 380.41L940 321.54L950 273.48L960 306.42L970 318.32L980 250.48L990 300.94L1000 275.23L1010 233.59L1020 228.24L1030 170.6L1040 103.54L1050 151.22L1060 152.66L1070 199.89L1080 234.68L1090 190.56L1100 187.47L1110 182.63L1120 122.24L1130 142.44L1140 92.58L1150 124.88L1160 89.28L1170 140.85L1180 142.24L1190 208.12L1200 247.73L1210 184.6L1220 150.15L1230 88.8L1240 69.04L1250 3.76L1260 10.08L1270 68.64L1280 96.75L1290 32.83L1300 56.38L1310 13.81L1320 76.9L1330 105.03L1340 48.5L1350 15.49L1360 41.86L1370 62.22L1380 106.19L1390 47.18L1400 42.75L1410 99.41L1420 38.54L1430 46.62L1440 29.34" stroke="rgba(5, 48, 240, 1)" stroke-width="2"></path><path d="M0 379.51L10 407.85L20 431.38L30 469.71L40 405.98L50 441.65L60 489.89L70 513.53L80 531.07L90 530.34L100 493.13L110 450.67L120 517.87L130 550.01L140 521.35L150 460.07L160 412.22L170 427.61L180 468.74L190 426.58L200 446.18L210 503.76L220 541.88L230 529.6L240 506.3L250 493.69L260 511.79L270 467.2L280 439.06L290 436.71L300 375.21L310 387.58L320 419.04L330 384.27L340 385.08L350 381.77L360 377.43L370 363.95L380 422.53L390 437.84L400 450.7L410 481.75L420 480.43L430 438.53L440 376.81L450 364.32L460 408.34L470 387.36L480 354.29L490 325.29L500 284.63L510 224.4L520 233.6L530 257.56L540 252.61L550 268.59L560 326.55L570 266.84L580 258.14L590 222.74L600 206.87L610 250.28L620 293.03L630 354.58L640 369.26L650 398.27L660 370.49L670 355.25L680 410.27L690 393.58L700 440.42L710 477.12L720 458.63L730 390.33L740 356.47L750 401.65L760 442.42L770 438.28L780 391.84L790 451.45L800 496.14L810 558.44L820 524.43L830 465.43L840 437.09L850 415.77L860 363.3L870 406.04L880 414.37L890 469.42L900 415.07L910 372.92L920 438.54L930 380.41L940 321.54L950 273.48L960 306.42L970 318.32L980 250.48L990 300.94L1000 275.23L1010 233.59L1020 228.24L1030 170.6L1040 103.54L1050 151.22L1060 152.66L1070 199.89L1080 234.68L1090 190.56L1100 187.47L1110 182.63L1120 122.24L1130 142.44L1140 92.58L1150 124.88L1160 89.28L1170 140.85L1180 142.24L1190 208.12L1200 247.73L1210 184.6L1220 150.15L1230 88.8L1240 69.04L1250 3.76L1260 10.08L1270 68.64L1280 96.75L1290 32.83L1300 56.38L1310 13.81L1320 76.9L1330 105.03L1340 48.5L1350 15.49L1360 41.86L1370 62.22L1380 106.19L1390 47.18L1400 42.75L1410 99.41L1420 38.54L1430 46.62L1440 29.34L1440 560L0 560z" fill="url(#SvgjsLinearGradient1043)"></path></g><defs><mask id="SvgjsMask1042"><rect width="1440" height="560" fill="#ffffff"></rect></mask><linearGradient x1="50%" y1="0%" x2="50%" y2="100%" id="SvgjsLinearGradient1043"><stop stop-opacity="0.65" stop-color="rgba(5, 48, 240, 1)" offset="0"></stop><stop stop-opacity="0" stop-color="#cfd7fe" offset="0.8"></stop></linearGradient></defs></svg>